<svg width="369" height="376" viewBox="0 0 369 376" fill="none" xmlns="http://www.w3.org/2000/svg">
<path d="M3 138.851C9.91341 145.638 17.159 154.741 26.4614 158.448C36.4644 162.435 49.4982 163.72 60.1354 163.209C98.6757 161.36 131.103 139.583 159.501 115.114C189.033 89.6677 209.14 55.096 239.27 30.2385C258.299 14.5398 287.309 -2.6307 313.381 4.77599C334.617 10.8091 344.298 36.924 344.985 56.7361C345.803 80.3612 334.092 102.563 311.587 111.663C290.57 120.162 266.051 112.989 248.034 101.037C234.461 92.0333 231.925 73.6895 243.755 61.4284C256.453 48.269 279.779 46.9106 296.82 48.0416C314.992 49.2477 330.686 57.113 341.12 72.4C351.324 87.3492 345.891 105.304 340.292 121.048C329.278 152.02 306.199 178.25 287.159 204.405C279.25 215.269 266.89 232.464 277.291 246.221C289.893 262.888 314.542 270.025 331.529 280.862C356.238 296.624 343.193 320.708 337.118 343.793" stroke="#FF4B2D" stroke-width="4.03535" stroke-linecap="round"/>
<path d="M324.695 351.653C329.852 358.274 334.889 364.874 339.6 371.802C341.966 375.281 342.405 371.826 343.878 369.318C349.898 359.068 357.125 350.734 366.926 344.2" stroke="#FF4B2D" stroke-width="4.03535" stroke-linecap="round"/>
</svg>
